<svg width="30" height="30" viewBox="0 0 30 30" fill="none" xmlns="http://www.w3.org/2000/svg">
<path d="M19.2857 13.7857C19.2857 15.2065 19.8501 16.5691 20.8548 17.5738C21.8594 18.5784 23.2221 19.1429 24.6429 19.1429C26.0637 19.1429 27.4263 18.5784 28.4309 17.5738C29.4356 16.5691 30 15.2065 30 13.7857C30.0002 13.6195 29.9616 13.4555 29.8875 13.3068L25.6018 4.73536C25.4865 4.50449 25.2918 4.32297 25.0535 4.22416C24.8151 4.12535 24.5491 4.11588 24.3043 4.1975L17.5211 6.45821C17.1453 5.98055 16.643 5.61788 16.0714 5.41143V2H13.9286V5.41143C13.3139 5.62874 12.78 6.02812 12.398 6.55639C12.0159 7.08467 11.8039 7.71678 11.79 8.36857L5.01857 10.6261C4.74916 10.7159 4.52642 10.9089 4.39929 11.1629L0.113571 19.7343C0.0388987 19.8833 1.11599e-05 20.0476 0 20.2143C0 21.6351 0.564412 22.9977 1.56907 24.0024C2.57373 25.007 3.93634 25.5714 5.35714 25.5714C6.77795 25.5714 8.14056 25.007 9.14522 24.0024C10.1499 22.9977 10.7143 21.6351 10.7143 20.2143C10.7144 20.0481 10.6759 19.8841 10.6018 19.7354L6.86786 12.2686L12.4789 10.3979C12.8546 10.8756 13.3569 11.2383 13.9286 11.4446V29.8571H16.0714V20.6514V11.4457C16.6861 11.2284 17.22 10.829 17.602 10.3008C17.9841 9.77248 18.1961 9.14037 18.21 8.48857L22.5279 7.04857L19.3993 13.3057C19.3246 13.4547 19.2857 13.6191 19.2857 13.7857ZM5.35714 23.4286C4.69475 23.4262 4.04931 23.219 3.50933 22.8354C2.96935 22.4517 2.56128 21.9104 2.34107 21.2857H8.37321C8.15301 21.9104 7.74494 22.4517 7.20495 22.8354C6.66497 23.219 6.01953 23.4262 5.35714 23.4286ZM7.90929 19.1429H2.805L5.35714 14.0386L7.90929 19.1429ZM15 9.5C14.7881 9.5 14.5809 9.43716 14.4047 9.31943C14.2285 9.2017 14.0912 9.03437 14.0101 8.83859C13.929 8.64281 13.9078 8.42738 13.9492 8.21955C13.9905 8.01171 14.0925 7.8208 14.2424 7.67096C14.3922 7.52112 14.5831 7.41907 14.791 7.37773C14.9988 7.33639 15.2142 7.35761 15.41 7.4387C15.6058 7.51979 15.7731 7.65712 15.8909 7.83332C16.0086 8.00951 16.0714 8.21666 16.0714 8.42857C16.0714 8.71273 15.9585 8.98525 15.7576 9.18619C15.5567 9.38712 15.2842 9.5 15 9.5ZM24.6429 17C23.9805 16.9977 23.335 16.7905 22.795 16.4068C22.2551 16.0232 21.847 15.4819 21.6268 14.8571H27.6589C27.4387 15.4819 27.0307 16.0232 26.4907 16.4068C25.9507 16.7905 25.3052 16.9977 24.6429 17ZM24.6429 7.61L27.195 12.7143H22.0907L24.6429 7.61Z" fill="white"/>
</svg>
