<svg width="30" height="30" viewBox="0 0 30 30" fill="none" xmlns="http://www.w3.org/2000/svg">
<g clip-path="url(#clip0_46_505)">
<path d="M7.87625 24.9021C7.8115 24.6509 7.55528 24.5 7.3042 24.5646C7.05301 24.6293 6.9019 24.8855 6.96664 25.1367C6.99881 25.2614 7.0151 25.3908 7.0151 25.5212C7.0151 26.3672 6.32675 27.0556 5.48071 27.0556C4.63468 27.0556 3.94632 26.3672 3.94632 25.5212C3.94632 24.6751 4.63462 23.9868 5.48065 23.9868C5.61085 23.9868 5.74005 24.0031 5.86456 24.0351C6.11575 24.0997 6.37192 23.9485 6.43655 23.6973C6.50124 23.4461 6.35001 23.19 6.09882 23.1254C5.89784 23.0736 5.68983 23.0474 5.48065 23.0474C4.1166 23.0474 3.00684 24.1571 3.00684 25.5212C3.00684 26.8852 4.1166 27.995 5.48065 27.995C6.84471 27.995 7.95447 26.8852 7.95447 25.5212C7.95447 25.3117 7.92816 25.1035 7.87625 24.9021Z" fill="#25274D"/>
<path d="M19.9012 24.9021C19.8364 24.651 19.5801 24.5 19.3291 24.5646C19.0779 24.6294 18.9268 24.8856 18.9915 25.1368C19.0237 25.2614 19.04 25.3908 19.04 25.5212C19.04 26.3673 18.3516 27.0556 17.5056 27.0556C16.6596 27.0556 15.9712 26.3673 15.9712 25.5212C15.9712 24.6752 16.6596 23.9869 17.5056 23.9869C17.6358 23.9869 17.765 24.0031 17.8896 24.0351C18.1408 24.0998 18.3969 23.9486 18.4616 23.6973C18.5263 23.4462 18.375 23.19 18.1237 23.1254C17.9227 23.0736 17.7147 23.0474 17.5056 23.0474C16.1415 23.0474 15.0317 24.1571 15.0317 25.5212C15.0317 26.8852 16.1415 27.995 17.5056 27.995C18.8696 27.995 19.9794 26.8852 19.9794 25.5212C19.9794 25.3117 19.9531 25.1035 19.9012 24.9021Z" fill="#25274D"/>
<path d="M21.9279 24.8065C21.6635 23.1044 20.4122 21.6961 18.7403 21.2186C17.9531 20.9938 17.1626 20.9838 16.3856 21.1881L13.8167 17.3348C13.9166 17.0635 13.9669 16.7846 13.9669 16.5028C13.9669 16.2088 13.9151 15.9267 13.8206 15.6649L18.6204 8.46506C18.987 7.91528 19.1175 7.25563 18.9879 6.60771C18.8583 5.95972 18.4842 5.40109 17.9343 5.03453C17.8307 4.96539 17.7037 4.94025 17.5816 4.96474C17.4595 4.98918 17.352 5.06113 17.2829 5.16478L11.493 13.8496L5.70321 5.16478C5.55936 4.94898 5.26768 4.89056 5.05188 5.03453C4.50204 5.40103 4.12792 5.95972 3.99831 6.60771C3.8687 7.25569 3.99919 7.91528 4.36575 8.46506L9.16954 15.6708C9.06964 15.9422 9.01925 16.221 9.01925 16.5029C9.01925 16.7969 9.07105 17.079 9.16562 17.3408L6.60074 21.1882C5.82374 20.9839 5.03331 20.9938 4.24605 21.2187C2.57396 21.6962 1.32276 23.1045 1.05844 24.8066C0.828755 26.2851 1.30928 27.7221 2.37674 28.7489C3.225 29.5649 4.31982 30.0001 5.47417 30.0001C5.77293 30.0001 6.0758 29.9709 6.37914 29.9116C8.09845 29.576 9.49626 28.1983 9.85743 26.4835C10.1329 25.1754 9.83862 23.861 9.04908 22.8224L11.4932 19.1561L13.9374 22.8224C13.1478 23.861 12.8535 25.1753 13.1291 26.4835C13.4902 28.1983 14.888 29.576 16.6073 29.9117C16.9109 29.9709 17.2136 30.0001 17.5123 30.0001C18.6666 30.0001 19.7616 29.5649 20.6098 28.749C21.677 27.722 22.1575 26.2851 21.9279 24.8065ZM17.7637 6.13738C17.9139 6.32587 18.0182 6.54876 18.0667 6.79198C18.1471 7.19388 18.0661 7.60303 17.8388 7.94405L13.2754 14.7892C13.0287 14.5327 12.7271 14.3296 12.39 14.198L17.7637 6.13738ZM8.07396 22.5913C7.95502 22.7695 7.97189 23.0055 8.11474 23.1651C8.87687 24.0165 9.17698 25.1553 8.93804 26.2897C8.65357 27.6402 7.55289 28.7252 6.19897 28.9896C5.02786 29.2183 3.87193 28.8838 3.02789 28.0719C2.18414 27.2602 1.80463 26.1226 1.98668 24.9508C2.19182 23.6302 3.20343 22.4934 4.50397 22.122C5.22046 21.9173 5.94028 21.9378 6.6434 22.1827C6.84561 22.2531 7.06996 22.1779 7.18879 21.9998L9.71089 18.2165C9.95763 18.4731 10.2592 18.6762 10.5964 18.8078L8.07396 22.5913ZM19.9583 28.0719C19.1143 28.8838 17.9585 29.2182 16.7872 28.9896C15.4333 28.7251 14.3326 27.6401 14.0482 26.2897C13.8092 25.1554 14.1093 24.0165 14.8715 23.1651C15.0143 23.0055 15.0312 22.7695 14.9123 22.5913L12.0074 18.234C11.92 18.1028 11.773 18.0248 11.6166 18.0248C11.607 18.0248 11.5973 18.0251 11.5876 18.0257C11.5578 18.0275 11.5285 18.0311 11.4993 18.0351C11.4945 18.0358 11.4897 18.0365 11.485 18.0371C10.6426 18.0327 9.95874 17.3461 9.95874 16.5027C9.95874 16.2764 10.0139 16.0499 10.1226 15.8293C10.1968 15.679 10.1852 15.5004 10.0922 15.361L5.14739 7.94393C4.92005 7.60292 4.83913 7.19376 4.91946 6.79187C4.96804 6.5487 5.07221 6.32575 5.22251 6.13726L10.9787 14.7716C11.0715 14.9108 11.2314 14.9901 11.3985 14.9799C11.4284 14.9781 11.4576 14.9745 11.4869 14.9704C11.4917 14.9697 11.4965 14.9691 11.5012 14.9684C12.3436 14.9729 13.0275 15.6595 13.0275 16.5028C13.0275 16.7291 12.9723 16.9557 12.8636 17.1763C12.7894 17.3266 12.801 17.5051 12.894 17.6446L15.7974 21.9998C15.9162 22.178 16.1406 22.2532 16.3428 22.1827C17.0459 21.9378 17.7656 21.9173 18.4822 22.122C19.7828 22.4934 20.7944 23.6301 20.9995 24.9508C21.1816 26.1225 20.8021 27.2601 19.9583 28.0719Z" fill="#25274D"/>
<path d="M11.4981 16.0327H11.4931C11.2337 16.0327 11.0259 16.243 11.0259 16.5025C11.0259 16.7619 11.2387 16.9722 11.4981 16.9722C11.7575 16.9722 11.9678 16.7619 11.9678 16.5025C11.9678 16.243 11.7575 16.0327 11.4981 16.0327Z" fill="#25274D"/>
<path d="M22.0148 0H21.0127C20.7533 0 20.543 0.210292 20.543 0.469744C20.543 0.729138 20.7533 0.93943 21.0127 0.93943H22.0148C22.2742 0.93943 22.4845 0.729138 22.4845 0.469744C22.4845 0.210292 22.2742 0 22.0148 0Z" fill="#25274D"/>
<path d="M16.0023 0H15.0003C14.7409 0 14.5305 0.210292 14.5305 0.469744C14.5305 0.729138 14.7408 0.93943 15.0003 0.93943H16.0023C16.2617 0.93943 16.4721 0.729138 16.4721 0.469744C16.472 0.210292 16.2617 0 16.0023 0Z" fill="#25274D"/>
<path d="M12.9962 0H11.4931C11.2337 0 11.0234 0.210292 11.0234 0.469744V1.97284C11.0234 2.23224 11.2337 2.44259 11.4931 2.44259C11.7525 2.44259 11.9629 2.2323 11.9629 1.97284V0.93943H12.9962C13.2556 0.93943 13.4659 0.729138 13.4659 0.469744C13.466 0.210292 13.2556 0 12.9962 0Z" fill="#25274D"/>
<path d="M19.0084 0H18.0064C17.747 0 17.5366 0.210292 17.5366 0.469744C17.5366 0.729138 17.7469 0.93943 18.0064 0.93943H19.0084C19.2678 0.93943 19.4782 0.729138 19.4782 0.469744C19.4782 0.210292 19.2679 0 19.0084 0Z" fill="#25274D"/>
<path d="M25.0208 0H24.0188C23.7594 0 23.5491 0.210292 23.5491 0.469744C23.5491 0.729138 23.7594 0.93943 24.0188 0.93943H25.0208C25.2802 0.93943 25.4906 0.729138 25.4906 0.469744C25.4905 0.210292 25.2803 0 25.0208 0Z" fill="#25274D"/>
<path d="M22.0148 17.0352H21.0127C20.7533 17.0352 20.543 17.2454 20.543 17.5049C20.543 17.7644 20.7533 17.9746 21.0127 17.9746H22.0148C22.2742 17.9746 22.4845 17.7643 22.4845 17.5049C22.4845 17.2455 22.2742 17.0352 22.0148 17.0352Z" fill="#25274D"/>
<path d="M16.0023 17.0352H15.5012C15.2418 17.0352 15.0315 17.2454 15.0315 17.5049C15.0315 17.7644 15.2418 17.9746 15.5012 17.9746H16.0023C16.2617 17.9746 16.472 17.7643 16.472 17.5049C16.472 17.2455 16.2617 17.0352 16.0023 17.0352Z" fill="#25274D"/>
<path d="M19.0084 17.0352H18.0064C17.747 17.0352 17.5366 17.2454 17.5366 17.5049C17.5366 17.7644 17.7469 17.9746 18.0064 17.9746H19.0084C19.2678 17.9746 19.4782 17.7643 19.4782 17.5049C19.4782 17.2455 19.2679 17.0352 19.0084 17.0352Z" fill="#25274D"/>
<path d="M25.0208 17.0352H24.0188C23.7594 17.0352 23.5491 17.2454 23.5491 17.5049C23.5491 17.7644 23.7594 17.9746 24.0188 17.9746H25.0208C25.2802 17.9746 25.4906 17.7643 25.4906 17.5049C25.4906 17.2455 25.2803 17.0352 25.0208 17.0352Z" fill="#25274D"/>
<path d="M28.5281 9.51953C28.2687 9.51953 28.0583 9.72982 28.0583 9.98928V10.9913C28.0583 11.2507 28.2686 11.4611 28.5281 11.4611C28.7875 11.4611 28.9978 11.2508 28.9978 10.9913V9.98928C28.9978 9.72982 28.7875 9.51953 28.5281 9.51953Z" fill="#25274D"/>
<path d="M28.5281 3.50732C28.2687 3.50732 28.0583 3.71762 28.0583 3.97701V4.97908C28.0583 5.23847 28.2686 5.44876 28.5281 5.44876C28.7875 5.44876 28.9978 5.23847 28.9978 4.97908V3.97701C28.9978 3.71762 28.7875 3.50732 28.5281 3.50732Z" fill="#25274D"/>
<path d="M28.5281 6.51318C28.2687 6.51318 28.0583 6.72348 28.0583 6.98293V7.98499C28.0583 8.24439 28.2686 8.45468 28.5281 8.45468C28.7875 8.45468 28.9978 8.24439 28.9978 7.98499V6.98293C28.9978 6.72353 28.7875 6.51318 28.5281 6.51318Z" fill="#25274D"/>
<path d="M11.4931 9.51953C11.2337 9.51953 11.0234 9.72982 11.0234 9.98928V10.9913C11.0234 11.2507 11.2337 11.4611 11.4931 11.4611C11.7525 11.4611 11.9629 11.2508 11.9629 10.9913V9.98928C11.9629 9.72982 11.7525 9.51953 11.4931 9.51953Z" fill="#25274D"/>
<path d="M11.4931 3.50732C11.2337 3.50732 11.0234 3.71762 11.0234 3.97701V4.97908C11.0234 5.23847 11.2337 5.44876 11.4931 5.44876C11.7525 5.44876 11.9629 5.23847 11.9629 4.97908V3.97701C11.9629 3.71762 11.7525 3.50732 11.4931 3.50732Z" fill="#25274D"/>
<path d="M11.4931 6.51318C11.2337 6.51318 11.0234 6.72348 11.0234 6.98293V7.98499C11.0234 8.24439 11.2337 8.45468 11.4931 8.45468C11.7525 8.45468 11.9629 8.24439 11.9629 7.98499V6.98293C11.9629 6.72353 11.7525 6.51318 11.4931 6.51318Z" fill="#25274D"/>
<path d="M28.5281 12.5259C28.2687 12.5259 28.0583 12.7362 28.0583 12.9956V13.9977C28.0583 14.2571 28.2686 14.4674 28.5281 14.4674C28.7875 14.4674 28.9978 14.2571 28.9978 13.9977V12.9956C28.9978 12.7362 28.7875 12.5259 28.5281 12.5259Z" fill="#25274D"/>
<path d="M28.5282 0H27.0251C26.7657 0 26.5554 0.210292 26.5554 0.469744C26.5554 0.729138 26.7657 0.93943 27.0251 0.93943H28.0585V1.97279C28.0585 2.23218 28.2688 2.44253 28.5282 2.44253C28.7876 2.44253 28.9979 2.23224 28.9979 1.97279V0.469744C28.9979 0.210292 28.7877 0 28.5282 0Z" fill="#25274D"/>
<path d="M28.5282 15.5317C28.2688 15.5317 28.0585 15.742 28.0585 16.0014V17.0348H27.0251C26.7657 17.0348 26.5554 17.2451 26.5554 17.5045C26.5554 17.764 26.7657 17.9742 27.0251 17.9742H28.5282C28.7876 17.9742 28.9979 17.7639 28.9979 17.5045V16.0014C28.9979 15.742 28.7877 15.5317 28.5282 15.5317Z" fill="#25274D"/>
</g>
<defs>
<clipPath id="clip0_46_505">
<rect width="30" height="30" fill="white"/>
</clipPath>
</defs>
</svg>
