<svg width="16" height="13" viewBox="0 0 16 13" fill="none" xmlns="http://www.w3.org/2000/svg">
<path d="M8.18988 4.90875L7.35326 3.23156C7.14551 2.81625 6.78522 2.21906 6.2752 1.73625C5.77361 1.26094 5.17282 0.9375 4.44662 0.9375C2.8782 0.9375 1.63918 2.18063 1.63918 3.675C1.63918 4.81031 2.15762 5.61188 3.38728 6.83438C3.70265 7.1475 4.06201 7.48594 4.45973 7.85906C5.49661 8.83406 6.78616 10.0472 8.18988 11.6691C9.5936 10.0472 10.8832 8.83406 11.92 7.85906C12.3178 7.48594 12.678 7.14656 12.9925 6.83438C14.2221 5.61188 14.7406 4.81031 14.7406 3.675C14.7406 2.18063 13.5016 0.9375 11.9331 0.9375C11.206 0.9375 10.6062 1.26094 10.1046 1.73625C9.59454 2.21906 9.23425 2.81625 9.0265 3.23156L8.18988 4.90875ZM8.55672 12.6825C8.51165 12.736 8.45548 12.779 8.39212 12.8084C8.32876 12.8379 8.25974 12.8532 8.18988 12.8532C8.12002 12.8532 8.051 12.8379 7.98764 12.8084C7.92428 12.779 7.86811 12.736 7.82304 12.6825C6.3248 10.8994 4.96881 9.62438 3.85238 8.57531C1.91993 6.7575 0.703369 5.61469 0.703369 3.675C0.703369 1.64531 2.37848 0 4.44662 0C5.94393 0 6.9911 0.984375 7.63213 1.8825C7.87545 2.22469 8.06074 2.55375 8.18988 2.8125C8.35177 2.48866 8.53823 2.17775 8.74762 1.8825C9.38866 0.983437 10.4358 0 11.9331 0C14.0013 0 15.6764 1.64531 15.6764 3.675C15.6764 5.61469 14.4598 6.7575 12.5274 8.57531C11.411 9.62531 10.055 10.9003 8.55672 12.6816V12.6825Z" fill="#FF5050"/>
</svg>
