<svg width="30" height="30" viewBox="0 0 30 30" fill="none" xmlns="http://www.w3.org/2000/svg">
<path d="M29.9986 24.3786C29.9983 24.3742 29.9984 24.3699 29.9979 24.3655C29.9964 24.3481 29.9938 24.3311 29.9903 24.3144C29.9899 24.3127 29.9894 24.3111 29.989 24.3094C29.9855 24.2941 29.9812 24.2791 29.9762 24.2644C29.9749 24.2605 29.9734 24.2567 29.9719 24.2528C29.967 24.2395 29.9614 24.2266 29.9553 24.214C29.9542 24.2118 29.9535 24.2095 29.9524 24.2073L27.6021 19.5714V4.31947C27.6021 3.85037 27.2205 3.46875 26.7514 3.46875H3.2485C2.77939 3.46875 2.39777 3.85037 2.39777 4.31947V19.5713L0.0475195 24.2072C0.0464063 24.2094 0.0457031 24.2117 0.0446484 24.2139C0.0384961 24.2265 0.0329883 24.2395 0.0280078 24.2527C0.026543 24.2566 0.0250781 24.2605 0.0237305 24.2644C0.01875 24.2791 0.0144141 24.2941 0.010957 24.3095C0.0106055 24.3111 0.0100781 24.3127 0.00972656 24.3142C0.00615234 24.331 0.00363281 24.3481 0.00205078 24.3655C0.00164062 24.3698 0.00164063 24.3742 0.00140625 24.3785C0.000820313 24.3877 0 24.3967 0 24.4059V25.5208C0 26.0779 0.453223 26.5311 1.01039 26.5311H28.9896C29.5468 26.5311 30 26.0779 30 25.5208V24.4059C30 24.3967 29.9992 24.3877 29.9986 24.3786ZM3.27674 4.34777H26.7233V19.237H3.27674V4.34777ZM3.10717 20.1158H26.8928L28.845 23.9664H19.1899L18.7053 22.2093C18.6066 21.8516 18.2786 21.6017 17.9075 21.6017H12.0923C11.7213 21.6017 11.3932 21.8516 11.2946 22.2092L10.81 23.9664H1.15494L3.10717 20.1158ZM18.2782 23.9665H11.7218L12.1315 22.4807H17.8685L18.2782 23.9665ZM29.1211 25.5207C29.1211 25.5932 29.0621 25.6522 28.9896 25.6522H1.01039C0.93791 25.6522 0.878906 25.5932 0.878906 25.5207V24.8453H29.1211V25.5207Z" fill="#25274D"/>
<path d="M25.3464 12.5249C25.1037 12.5249 24.907 12.7216 24.907 12.9644V17.4207H5.09326V12.9644C5.09326 12.7216 4.89656 12.5249 4.65381 12.5249C4.41105 12.5249 4.21436 12.7216 4.21436 12.9644V17.6105C4.21436 17.9905 4.52344 18.2996 4.90348 18.2996H25.0968C25.4768 18.2996 25.7859 17.9905 25.7859 17.6105V12.9644C25.7859 12.7217 25.5892 12.5249 25.3464 12.5249Z" fill="#25274D"/>
<path d="M25.0968 5.28516H4.90348C4.5235 5.28516 4.21436 5.59424 4.21436 5.97428V10.6204C4.21436 10.8632 4.41105 11.0599 4.65381 11.0599C4.89656 11.0599 5.09326 10.8632 5.09326 10.6204V6.16406H24.907V10.6204C24.907 10.8632 25.1037 11.0599 25.3464 11.0599C25.5892 11.0599 25.7859 10.8632 25.7859 10.6204V5.97428C25.7859 5.59418 25.4768 5.28516 25.0968 5.28516Z" fill="#25274D"/>
</svg>
