<svg width="20" height="20" viewBox="0 0 20 20" fill="none" xmlns="http://www.w3.org/2000/svg">
<path d="M9.41188 18.823C10.4354 18.823 11.4236 18.6583 12.346 18.3571C11.8905 17.7648 11.5059 17.1212 11.2001 16.4395C10.6166 17.2642 9.98364 17.6465 9.41188 17.6465C8.63895 17.6465 7.75661 16.9524 7.03309 15.4019C6.7577 14.7989 6.53797 14.172 6.37662 13.529H10.593C10.6072 13.1267 10.6625 12.7326 10.7542 12.3526H6.12486C5.96138 11.3808 5.88031 10.3969 5.88251 9.41149C5.88251 8.3727 5.96839 7.38214 6.12486 6.4704H12.6989C12.8401 7.29861 12.9248 8.19153 12.9389 9.12679C13.2942 8.88445 13.6812 8.68563 14.0989 8.53857C14.0685 7.84581 13.999 7.15532 13.8907 6.4704H17.1059C17.353 7.11626 17.5212 7.80095 17.5988 8.51269C18.0388 8.6621 18.4471 8.86798 18.8188 9.12091C18.7617 7.27274 18.1615 5.48233 17.093 3.97322C16.0246 2.46411 14.5352 1.30316 12.811 0.635316C11.0867 -0.0325251 9.20391 -0.177667 7.39766 0.218013C5.59141 0.613692 3.94173 1.53266 2.65458 2.86018C1.36744 4.18771 0.499867 5.86496 0.160179 7.68254C-0.179509 9.50013 0.0237414 11.3775 0.744552 13.0803C1.46536 14.7831 2.6718 16.2358 4.21323 17.2571C5.75466 18.2784 7.5628 18.823 9.41188 18.823ZM9.41188 1.17644C10.1848 1.17644 11.0672 1.87054 11.7907 3.42108C12.046 3.9693 12.2683 4.59987 12.4483 5.29396H6.37545C6.55544 4.59987 6.77779 3.9693 7.03426 3.42108C7.75543 1.87054 8.63777 1.17644 9.41188 1.17644ZM5.96722 2.92345C5.61982 3.68438 5.3506 4.47863 5.1637 5.29396H2.27785C3.27106 3.57739 4.84867 2.27541 6.7225 1.62584C6.43898 2.01406 6.18604 2.45405 5.96722 2.92345ZM4.93193 6.4704C4.77968 7.44333 4.70415 8.42672 4.70605 9.41149C4.70605 10.435 4.78488 11.4255 4.93311 12.3526H1.71785C1.35906 11.4136 1.17564 10.4167 1.17668 9.41149C1.17668 8.37623 1.36844 7.38331 1.71785 6.4704H4.93311H4.93193ZM5.1637 13.529C5.37075 14.4031 5.64251 15.2019 5.96722 15.8995C6.18604 16.3689 6.43898 16.8089 6.7225 17.1971C4.84867 16.5476 3.27106 15.2456 2.27785 13.529H5.16487H5.1637ZM12.1013 1.62584C13.9751 2.27531 15.5528 3.57732 16.5459 5.29396H13.6589C13.472 4.47863 13.2028 3.68439 12.8554 2.92345C12.6459 2.46765 12.393 2.0331 12.1001 1.62584H12.1013ZM20 13.7431C20 11.3514 18.2765 9.41267 15.8836 9.41267C13.4918 9.41267 11.7648 11.3514 11.7648 13.7431C11.7648 15.536 12.9201 17.8959 15.5953 19.9029C15.7659 20.0324 16.0012 20.0324 16.1718 19.9029C18.8494 17.8959 20 15.536 20 13.7431ZM17.6471 13.529C17.6471 13.997 17.4612 14.4459 17.1302 14.7768C16.7993 15.1077 16.3504 15.2937 15.8824 15.2937C15.4144 15.2937 14.9655 15.1077 14.6346 14.7768C14.3036 14.4459 14.1177 13.997 14.1177 13.529C14.1177 13.061 14.3036 12.6122 14.6346 12.2812C14.9655 11.9503 15.4144 11.7644 15.8824 11.7644C16.3504 11.7644 16.7993 11.9503 17.1302 12.2812C17.4612 12.6122 17.6471 13.061 17.6471 13.529Z" fill="#25274D"/>
</svg>
