<svg width="156" height="40" viewBox="0 0 156 40" fill="none" xmlns="http://www.w3.org/2000/svg">
<path d="M41.3837 0L36.0044 5.2802L30.625 0L28.2253 2.35542L45.5282 19.5L36.0044 28.8482L33.1065 26.0038L39.7325 19.5L19.8663 0L0 19.5L19.8663 39L25.2456 33.7198L30.625 39L33.0878 36.5826L15.7195 19.5L25.2456 10.1518L28.1435 12.9962L21.5175 19.5L41.3837 39L61.25 19.5L41.3837 0ZM10.7587 19.5L22.7641 31.284L19.8663 34.1284L4.96072 19.5L19.8663 4.87156L22.7641 7.71597L10.7587 19.5ZM26.4782 19.5L30.6227 15.4319L34.7671 19.5L30.6227 23.5681L26.4782 19.5ZM38.4836 31.284L50.4889 19.5L38.4836 7.71597L41.3814 4.87156L56.2846 19.5L41.3814 34.1284L38.4836 31.284Z" fill="url(#paint0_linear_46_2488)"/>
<path d="M74.9136 20.394C75.7166 20.394 76.4096 20.295 76.9926 20.097C77.5756 19.888 78.0541 19.6075 78.4281 19.2555C78.8021 18.8925 79.0771 18.469 79.2531 17.985C79.4291 17.501 79.5171 16.973 79.5171 16.401C79.5171 15.268 79.1376 14.388 78.3786 13.761C77.6306 13.134 76.4866 12.8205 74.9466 12.8205H72.3726V20.394H74.9136ZM86.5131 33H82.0416C81.2056 33 80.6006 32.681 80.2266 32.043L75.6726 24.7005C75.4856 24.4145 75.2766 24.2055 75.0456 24.0735C74.8256 23.9415 74.4956 23.8755 74.0556 23.8755H72.3726V33H67.4226V9.0585H74.9466C76.6186 9.0585 78.0486 9.2345 79.2366 9.5865C80.4246 9.9275 81.3981 10.406 82.1571 11.022C82.9161 11.638 83.4716 12.375 83.8236 13.233C84.1756 14.08 84.3516 15.015 84.3516 16.038C84.3516 16.83 84.2361 17.5835 84.0051 18.2985C83.7851 19.0025 83.4606 19.646 83.0316 20.229C82.6026 20.812 82.0746 21.329 81.4476 21.78C80.8206 22.231 80.1056 22.594 79.3026 22.869C79.6216 23.045 79.9186 23.2595 80.1936 23.5125C80.4686 23.7545 80.7161 24.046 80.9361 24.387L86.5131 33ZM111.599 21.021C111.599 22.77 111.302 24.3925 110.708 25.8885C110.125 27.3845 109.295 28.677 108.217 29.766C107.15 30.855 105.863 31.713 104.356 32.34C102.849 32.956 101.177 33.264 99.34 33.264C97.503 33.264 95.831 32.956 94.324 32.34C92.817 31.713 91.5245 30.855 90.4465 29.766C89.3685 28.677 88.5325 27.3845 87.9385 25.8885C87.3555 24.3925 87.064 22.77 87.064 21.021C87.064 19.272 87.3555 17.655 87.9385 16.17C88.5325 14.674 89.3685 13.3815 90.4465 12.2925C91.5245 11.2035 92.817 10.351 94.324 9.735C95.831 9.108 97.503 8.7945 99.34 8.7945C101.177 8.7945 102.849 9.108 104.356 9.735C105.863 10.351 107.15 11.209 108.217 12.309C109.295 13.398 110.125 14.6905 110.708 16.1865C111.302 17.6715 111.599 19.283 111.599 21.021ZM106.534 21.021C106.534 19.767 106.369 18.645 106.039 17.655C105.709 16.654 105.23 15.807 104.603 15.114C103.987 14.41 103.234 13.8765 102.343 13.5135C101.463 13.1395 100.462 12.9525 99.34 12.9525C98.218 12.9525 97.2115 13.1395 96.3205 13.5135C95.4295 13.8765 94.6705 14.41 94.0435 15.114C93.4275 15.807 92.9545 16.654 92.6245 17.655C92.2945 18.645 92.1295 19.767 92.1295 21.021C92.1295 22.286 92.2945 23.419 92.6245 24.42C92.9545 25.41 93.4275 26.2515 94.0435 26.9445C94.6705 27.6375 95.4295 28.171 96.3205 28.545C97.2115 28.908 98.218 29.0895 99.34 29.0895C100.462 29.0895 101.463 28.908 102.343 28.545C103.234 28.171 103.987 27.6375 104.603 26.9445C105.23 26.2515 105.709 25.41 106.039 24.42C106.369 23.419 106.534 22.286 106.534 21.021ZM123.3 20.9715C124.851 20.9715 125.984 20.5975 126.699 19.8495C127.425 19.1015 127.788 18.0785 127.788 16.7805C127.788 16.1865 127.694 15.6475 127.507 15.1635C127.331 14.6685 127.056 14.2505 126.682 13.9095C126.319 13.5575 125.857 13.288 125.296 13.101C124.735 12.914 124.07 12.8205 123.3 12.8205H120.165V20.9715H123.3ZM123.3 9.0585C124.939 9.0585 126.352 9.251 127.54 9.636C128.739 10.021 129.724 10.56 130.494 11.253C131.264 11.935 131.83 12.749 132.193 13.695C132.567 14.641 132.754 15.6695 132.754 16.7805C132.754 17.9575 132.562 19.0355 132.177 20.0145C131.792 20.9935 131.209 21.835 130.428 22.539C129.647 23.243 128.662 23.793 127.474 24.189C126.286 24.574 124.895 24.7665 123.3 24.7665H120.165V33H115.215V9.0585H123.3ZM143.989 20.9715C145.54 20.9715 146.673 20.5975 147.388 19.8495C148.114 19.1015 148.477 18.0785 148.477 16.7805C148.477 16.1865 148.383 15.6475 148.196 15.1635C148.02 14.6685 147.745 14.2505 147.371 13.9095C147.008 13.5575 146.546 13.288 145.985 13.101C145.424 12.914 144.759 12.8205 143.989 12.8205H140.854V20.9715H143.989ZM143.989 9.0585C145.628 9.0585 147.041 9.251 148.229 9.636C149.428 10.021 150.413 10.56 151.183 11.253C151.953 11.935 152.519 12.749 152.882 13.695C153.256 14.641 153.443 15.6695 153.443 16.7805C153.443 17.9575 153.251 19.0355 152.866 20.0145C152.481 20.9935 151.898 21.835 151.117 22.539C150.336 23.243 149.351 23.793 148.163 24.189C146.975 24.574 145.584 24.7665 143.989 24.7665H140.854V33H135.904V9.0585H143.989Z" fill="#FF5050"/>
<defs>
<linearGradient id="paint0_linear_46_2488" x1="61.5462" y1="19.4995" x2="0.422443" y2="19.4995" gradientUnits="userSpaceOnUse">
<stop stop-color="#E8563D"/>
<stop offset="1" stop-color="#FF5050"/>
</linearGradient>
</defs>
</svg>
