<svg width="30" height="30" viewBox="0 0 30 30" fill="none" xmlns="http://www.w3.org/2000/svg">
<g clip-path="url(#clip0_46_307)">
<path d="M15.0001 4.66504C9.3014 4.66504 4.66528 9.30115 4.66528 14.9998C4.66528 20.6985 9.3014 25.3346 15.0001 25.3346C20.6987 25.3346 25.3348 20.6985 25.3348 14.9998C25.3348 9.30115 20.6987 4.66504 15.0001 4.66504ZM15.0001 24.3627C9.83736 24.3627 5.63718 20.1626 5.63718 14.9998C5.63718 9.83705 9.83736 5.63693 15.0001 5.63693C20.1628 5.63693 24.3629 9.83711 24.3629 14.9998C24.3629 20.1625 20.1628 24.3627 15.0001 24.3627Z" fill="#25274D"/>
<path d="M15.486 14.6289V10.8402C17.0738 10.9678 18.1426 11.7065 18.1426 12.3757C18.1426 12.6441 18.3601 12.8617 18.6285 12.8617C18.8969 12.8617 19.1145 12.6442 19.1145 12.3757C19.1145 11.06 17.5559 10.0095 15.486 9.86605V9.29799C15.486 9.02963 15.2684 8.81201 15 8.81201C14.7316 8.81201 14.514 9.02957 14.514 9.29799V9.86605C12.4441 10.0095 10.8855 11.06 10.8855 12.3757C10.8855 14.1385 12.5616 14.8263 14.514 15.3709V19.1597C12.9263 19.032 11.8575 18.2934 11.8575 17.6241C11.8575 17.3557 11.6399 17.1381 11.3715 17.1381C11.1031 17.1381 10.8855 17.3557 10.8855 17.6241C10.8855 18.9399 12.4441 19.9904 14.514 20.1338V20.7019C14.514 20.9702 14.7316 21.1878 15 21.1878C15.2684 21.1878 15.486 20.9703 15.486 20.7019V20.1338C17.5559 19.9904 19.1145 18.9399 19.1145 17.6241C19.1145 15.8614 17.4384 15.1736 15.486 14.6289ZM14.514 14.3587C12.5431 13.7764 11.8575 13.2474 11.8575 12.3757C11.8575 11.7065 12.9263 10.9678 14.514 10.8402V14.3587ZM15.486 19.1597V15.6411C17.457 16.2235 18.1426 16.7524 18.1426 17.6241C18.1426 18.2934 17.0738 19.0321 15.486 19.1597Z" fill="#25274D"/>
<path d="M25.6066 4.39342C22.7736 1.56023 19.0067 0 15 0C10.6867 0 6.65922 1.81494 3.81103 5.00977L4.07722 3.14648C4.11514 2.88076 3.93051 2.63467 3.66484 2.5967C3.39906 2.55902 3.15303 2.74342 3.11506 3.00902L2.59668 6.63756C2.57289 6.80426 2.63711 6.97143 2.76637 7.07941C2.85508 7.15342 2.96558 7.19227 3.07785 7.19227C3.1293 7.19227 3.18121 7.18412 3.23148 7.1673L6.34164 6.13061C6.59629 6.0457 6.73387 5.77055 6.64902 5.5159C6.56406 5.26125 6.28896 5.12355 6.03432 5.20852L4.47174 5.72941C7.13892 2.69654 10.9338 0.971895 15 0.971895C18.7471 0.971895 22.2698 2.43105 24.9194 5.08061C27.569 7.73022 29.0281 11.2529 29.0281 15C29.0281 18.7471 27.569 22.2698 24.9194 24.9194C22.2698 27.5689 18.7471 29.0281 15 29.0281C14.7317 29.0281 14.5141 29.2457 14.5141 29.5141C14.5141 29.7824 14.7316 30.0001 15 30.0001C19.0067 30.0001 22.7736 28.4398 25.6066 25.6066C28.4397 22.7735 30 19.0066 30 15C30 10.9934 28.4398 7.22648 25.6066 4.39342Z" fill="#25274D"/>
<path d="M12.9954 28.8859C12.8301 28.8622 12.6637 28.8354 12.5008 28.8061C12.2365 28.7585 11.984 28.9342 11.9365 29.1984C11.889 29.4626 12.0646 29.7152 12.3288 29.7627C12.5031 29.7941 12.6811 29.8228 12.8577 29.8481C12.8811 29.8514 12.9043 29.853 12.9272 29.853C13.1651 29.853 13.373 29.6781 13.4076 29.4359C13.4456 29.1701 13.261 28.924 12.9954 28.8859Z" fill="#25274D"/>
<path d="M10.6204 28.3311C10.3145 28.2307 10.0081 28.1181 9.70953 27.9965C9.46109 27.8953 9.17744 28.0145 9.07607 28.2632C8.97482 28.5117 9.09424 28.7953 9.34279 28.8966C9.66219 29.0268 9.99002 29.1472 10.3173 29.2546C10.3677 29.2712 10.4188 29.279 10.469 29.279C10.6733 29.279 10.8634 29.1492 10.9307 28.9445C11.0143 28.6894 10.8754 28.4149 10.6204 28.3311Z" fill="#25274D"/>
<path d="M1.29439 18.0052C1.22578 17.6906 1.1673 17.3695 1.1206 17.0508C1.08164 16.7852 0.835074 16.6017 0.56941 16.6404C0.303805 16.6793 0.120055 16.9261 0.15902 17.1916C0.209 17.5325 0.271461 17.8759 0.344879 18.2123C0.394508 18.4396 0.595719 18.5948 0.819195 18.5948C0.853531 18.5948 0.888394 18.5912 0.923258 18.5835C1.18541 18.5263 1.35164 18.2674 1.29439 18.0052Z" fill="#25274D"/>
<path d="M1.13087 10.681C0.872296 10.61 0.604698 10.7623 0.533683 11.0212C0.442511 11.3532 0.361886 11.693 0.294034 12.031C0.241183 12.2941 0.411632 12.5503 0.674776 12.6031C0.70712 12.6096 0.739229 12.6127 0.770987 12.6127C0.997687 12.6127 1.2006 12.4532 1.24689 12.2224C1.31034 11.9064 1.38575 11.5887 1.47095 11.2783C1.54191 11.0195 1.38974 10.752 1.13087 10.681Z" fill="#25274D"/>
<path d="M2.20644 20.763C2.07402 20.4696 1.95027 20.1677 1.83859 19.8658C1.74548 19.6141 1.46587 19.4855 1.21421 19.5787C0.962492 19.6718 0.833937 19.9513 0.927042 20.2031C1.04646 20.5259 1.17882 20.8488 1.3205 21.1628C1.40159 21.3426 1.57849 21.449 1.76376 21.449C1.83056 21.449 1.89847 21.4351 1.96333 21.4059C2.20802 21.2955 2.31677 21.0077 2.20644 20.763Z" fill="#25274D"/>
<path d="M0.541465 13.6318C0.273223 13.6155 0.0433008 13.8198 0.0272461 14.0877C0.00919922 14.3896 0 14.6965 0 15.0004C0 15.0418 0.000175781 15.0832 0.000527344 15.1246C0.00263672 15.3916 0.219785 15.6067 0.486445 15.6067C0.487676 15.6067 0.489023 15.6067 0.490313 15.6067C0.758672 15.6046 0.974531 15.3852 0.97248 15.1169C0.972188 15.0778 0.971953 15.0387 0.971953 15C0.971953 14.7158 0.980566 14.4285 0.9975 14.146C1.01361 13.8781 0.809414 13.6479 0.541465 13.6318Z" fill="#25274D"/>
<path d="M7.96842 27.1415C7.6901 26.9799 7.41354 26.8064 7.14635 26.6256C6.92404 26.4751 6.62199 26.5333 6.47152 26.7556C6.32106 26.9779 6.3793 27.2799 6.60154 27.4304C6.88713 27.6238 7.18291 27.8093 7.48051 27.9821C7.55727 28.0266 7.64111 28.0478 7.72402 28.0478C7.8916 28.0478 8.05461 27.961 8.14478 27.8056C8.27955 27.5737 8.20057 27.2762 7.96842 27.1415Z" fill="#25274D"/>
<path d="M3.66983 23.2734C3.4797 23.0135 3.29624 22.7436 3.12438 22.471C2.9813 22.244 2.68124 22.1759 2.45413 22.3191C2.22708 22.4623 2.15911 22.7623 2.30226 22.9894C2.48595 23.2808 2.68212 23.5693 2.88538 23.8473C2.98059 23.9774 3.12831 24.0463 3.27796 24.0463C3.37757 24.0463 3.478 24.0158 3.56448 23.9525C3.78116 23.7941 3.82833 23.4901 3.66983 23.2734Z" fill="#25274D"/>
<path d="M5.6187 25.43C5.37923 25.2145 5.14415 24.9878 4.92003 24.7563C4.73335 24.5635 4.42579 24.5585 4.2329 24.7453C4.04007 24.9319 4.03509 25.2396 4.22183 25.4324C4.46136 25.6798 4.71261 25.9221 4.96855 26.1524C5.06148 26.2361 5.17773 26.2772 5.29351 26.2772C5.42646 26.2772 5.55888 26.2229 5.65486 26.1164C5.83439 25.9168 5.81816 25.6095 5.6187 25.43Z" fill="#25274D"/>
<path d="M2.0914 8.34055C1.84888 8.22542 1.55902 8.32866 1.44388 8.57095C1.36759 8.73149 1.29324 8.89556 1.22281 9.05868C1.1164 9.30501 1.2299 9.59106 1.47628 9.69747C1.5391 9.72454 1.60443 9.73743 1.66871 9.73743C1.85673 9.73743 2.03585 9.62763 2.11507 9.44405C2.18093 9.29159 2.25042 9.13813 2.32179 8.98802C2.43693 8.74555 2.3338 8.45575 2.0914 8.34055Z" fill="#25274D"/>
</g>
<defs>
<clipPath id="clip0_46_307">
<rect width="30" height="30" fill="white"/>
</clipPath>
</defs>
</svg>
