<svg width="18" height="18" viewBox="0 0 18 18" fill="none" xmlns="http://www.w3.org/2000/svg">
<g clip-path="url(#clip0_41_7)">
<path d="M6.09555 0.000488281C9.45666 0.000488281 12.1911 2.7349 12.1911 6.09601C12.1911 7.67368 11.5886 9.11322 10.6016 10.1968L11.6358 11.231L11.8655 11.0012C12.0965 10.7703 12.4723 10.7703 12.7032 11.0012L17.6474 15.9454C17.8748 16.1728 18 16.4751 18 16.7966C18 17.1182 17.8748 17.4205 17.6474 17.6479C17.4127 17.8826 17.1044 17.9999 16.7962 17.9999C16.4879 17.9999 16.1796 17.8826 15.9449 17.6479L11.0008 12.7037C10.7698 12.4727 10.7698 12.097 11.0008 11.866L11.2304 11.6363L10.1962 10.6021C9.11269 11.5891 7.67315 12.1916 6.09548 12.1916C2.73438 12.1916 -3.62396e-05 9.45715 -3.62396e-05 6.09604C-3.62396e-05 2.73494 2.73445 0.000488281 6.09555 0.000488281ZM11.4061 12.2984L16.3503 17.2425C16.5962 17.4884 16.9962 17.4883 17.2421 17.2425C17.3611 17.1234 17.4268 16.9651 17.4268 16.7966C17.4268 16.6282 17.3612 16.4699 17.2421 16.3507L12.2979 11.4066C12.2942 11.4028 12.2893 11.401 12.2844 11.401C12.2795 11.401 12.2746 11.4029 12.2708 11.4066L11.4061 12.2713C11.3987 12.2788 11.3987 12.2909 11.4061 12.2984ZM6.09555 11.6183C9.14057 11.6183 11.6179 9.14103 11.6179 6.09601C11.6179 3.05099 9.14057 0.57371 6.09555 0.57371C3.05054 0.57371 0.573292 3.05103 0.573292 6.09601C0.573292 9.14099 3.05054 11.6183 6.09555 11.6183Z" fill="white"/>
<path d="M2.22113 3.13985C2.31732 3.0141 2.49718 2.99016 2.62293 3.08631C2.74865 3.1825 2.77263 3.36239 2.67648 3.48811C1.37478 5.19013 1.53766 7.61809 3.05539 9.13579C4.57315 10.6536 7.00125 10.8164 8.70327 9.51456C8.82899 9.41837 9.00891 9.44231 9.10507 9.56807C9.20125 9.69379 9.17731 9.87372 9.05156 9.96987C8.17923 10.6371 7.13882 10.965 6.1015 10.965C4.84463 10.965 3.59244 10.4835 2.65004 9.54117C0.929988 7.82108 0.745593 5.06912 2.22113 3.13985Z" fill="white"/>
<path d="M3.13976 2.22146C5.06906 0.745958 7.82101 0.930317 9.54102 2.65037C11.2611 4.37049 11.4455 7.12252 9.96979 9.05182C9.91333 9.12558 9.82811 9.16432 9.74194 9.16432C9.68123 9.16432 9.61999 9.14509 9.56802 9.10536C9.44231 9.00921 9.41833 8.82928 9.51452 8.70356C10.8163 7.00155 10.6535 4.57352 9.13571 3.05572C7.61802 1.53799 5.19003 1.37511 3.48805 2.67681C3.3623 2.77299 3.18244 2.74898 3.08625 2.62326C2.9901 2.49755 3.01404 2.31765 3.13976 2.22146Z" fill="white"/>
</g>
<defs>
<clipPath id="clip0_41_7">
<rect width="18" height="18" fill="white" transform="matrix(-1 0 0 1 18 0)"/>
</clipPath>
</defs>
</svg>
