<svg width="30" height="30" viewBox="0 0 30 30" fill="none" xmlns="http://www.w3.org/2000/svg">
<path d="M27.8999 13.5562L27.123 10.4487C27.3354 10.4036 27.4948 10.2151 27.4948 9.98937V9.48834C27.4948 8.40049 26.6097 7.51549 25.5219 7.51549H21.9833V6.48201C21.9833 5.9467 21.5479 5.51123 21.0125 5.51123H2.97492C2.43961 5.51123 2.00414 5.9467 2.00414 6.48201V14.9998C2.00414 15.2592 2.21443 15.4695 2.47389 15.4695C2.73328 15.4695 2.94363 15.2592 2.94363 14.9998V6.48201C2.94363 6.46473 2.95764 6.45072 2.97492 6.45072H21.0125C21.0298 6.45072 21.0438 6.46473 21.0438 6.48201V14.9999C21.0438 15.2593 21.2541 15.4696 21.5135 15.4696C21.7729 15.4696 21.9833 15.2593 21.9833 14.9999V14.4674H27.5244C27.5249 14.4674 27.5252 14.4675 27.5256 14.4675C27.5261 14.4675 27.5265 14.4675 27.5269 14.4675C28.2088 14.4679 28.7878 14.9155 28.9866 15.5322H27.526C27.2666 15.5322 27.0563 15.7425 27.0563 16.0019V17.004C27.0563 17.8156 27.7165 18.4758 28.5281 18.4758H29.0604V20.5426H27.8322C27.4287 19.3775 26.3212 18.5384 25.0208 18.5384C23.7203 18.5384 22.6127 19.3775 22.2093 20.5426H21.9831V17.0039C21.9831 16.7445 21.7729 16.5342 21.5134 16.5342C21.254 16.5342 21.0437 16.7445 21.0437 17.0039V20.5424H11.2979C10.8944 19.3774 9.78691 18.5383 8.48643 18.5383C7.18594 18.5383 6.0784 19.3774 5.67498 20.5424H2.97492C2.95764 20.5424 2.94363 20.5284 2.94363 20.5112V19.4777H4.97912C5.23852 19.4777 5.44887 19.2675 5.44887 19.008C5.44887 18.7485 5.23857 18.5383 4.97912 18.5383H0.469746C0.210352 18.5383 0 18.7485 0 19.008C0 19.2675 0.210293 19.4777 0.469746 19.4777H2.0042V20.5112C2.0042 21.0465 2.43967 21.4819 2.97498 21.4819H5.51232C5.51221 21.4924 5.5115 21.5027 5.5115 21.5132C5.5115 23.1536 6.84609 24.4881 8.48643 24.4881C10.1268 24.4881 11.4613 23.1536 11.4613 21.5132C11.4613 21.5027 11.4606 21.4924 11.4605 21.4819H22.0467C22.0465 21.4924 22.0458 21.5027 22.0458 21.5132C22.0458 23.1536 23.3804 24.4881 25.0208 24.4881C26.6611 24.4881 27.9957 23.1536 27.9957 21.5132C27.9957 21.5027 27.995 21.4924 27.9949 21.4819H29.5302C29.7896 21.4819 29.9999 21.2716 29.9999 21.0122V16.0018C30 14.7648 29.0873 13.737 27.8999 13.5562ZM21.9833 8.45492H25.5219C26.0917 8.45492 26.5553 8.91851 26.5553 9.48834V9.51963H21.9833V8.45492ZM21.9833 13.528V10.4591H26.1572L26.9245 13.528H21.9833ZM8.48643 23.5488C7.36406 23.5488 6.45094 22.6358 6.45094 21.5133C6.45094 20.3909 7.36406 19.4779 8.48643 19.4779C9.60879 19.4779 10.5219 20.3909 10.5219 21.5133C10.5219 22.6358 9.60879 23.5488 8.48643 23.5488ZM25.0209 23.5488C23.8985 23.5488 22.9854 22.6358 22.9854 21.5133C22.9854 20.3909 23.8985 19.4779 25.0209 19.4779C26.1432 19.4779 27.0564 20.3909 27.0564 21.5133C27.0564 22.6358 26.1432 23.5488 25.0209 23.5488ZM29.0606 17.5363H28.5282C28.2346 17.5363 27.9958 17.2975 27.9958 17.0039V16.4715H29.0605V17.5363H29.0606Z" fill="#25274D"/>
<path d="M8.48641 20.543C7.95109 20.543 7.51562 20.9784 7.51562 21.5138C7.51562 22.0491 7.95109 22.4845 8.48641 22.4845C9.02172 22.4845 9.45719 22.0491 9.45719 21.5138C9.45719 20.9784 9.02172 20.543 8.48641 20.543Z" fill="#25274D"/>
<path d="M25.0208 20.543C24.4855 20.543 24.05 20.9784 24.05 21.5138C24.05 22.0491 24.4855 22.4845 25.0208 22.4845C25.5561 22.4845 25.9916 22.0491 25.9916 21.5138C25.9916 20.9784 25.5561 20.543 25.0208 20.543Z" fill="#25274D"/>
<path d="M19.5093 18.5386H12.4946C12.2353 18.5386 12.0249 18.7489 12.0249 19.0083C12.0249 19.2678 12.2352 19.4781 12.4946 19.4781H19.5093C19.7687 19.4781 19.979 19.2678 19.979 19.0083C19.979 18.7489 19.7687 18.5386 19.5093 18.5386Z" fill="#25274D"/>
<path d="M7.48424 16.5347H1.4717C1.2123 16.5347 1.00195 16.745 1.00195 17.0044C1.00195 17.2639 1.21225 17.4742 1.4717 17.4742H7.48424C7.74363 17.4742 7.95399 17.2639 7.95399 17.0044C7.95399 16.745 7.74363 16.5347 7.48424 16.5347Z" fill="#25274D"/>
<path d="M16.3343 10.1585C16.1509 9.97514 15.8534 9.97514 15.67 10.1586L11.4928 14.3358L9.31969 12.1627C9.13624 11.9793 8.83881 11.9793 8.65542 12.1627C8.47196 12.3462 8.47196 12.6436 8.65542 12.827L11.1607 15.3323C11.2524 15.424 11.3726 15.4698 11.4928 15.4698C11.6129 15.4698 11.7332 15.424 11.8249 15.3323L16.3343 10.8229C16.5177 10.6394 16.5177 10.342 16.3343 10.1585Z" fill="#25274D"/>
</svg>
