<svg width="30" height="18" viewBox="0 0 30 18" fill="none" xmlns="http://www.w3.org/2000/svg">
<path fill-rule="evenodd" clip-rule="evenodd" d="M29.3125 1.435C29.52 0.7525 29.3125 0.25 28.3188 0.25H25.0375C24.2025 0.25 23.8175 0.68375 23.6087 1.1625C23.6087 1.1625 21.94 5.1575 19.5763 7.7525C18.8113 8.505 18.4638 8.74375 18.0463 8.74375C17.8375 8.74375 17.5238 8.505 17.5238 7.82125V1.435C17.5238 0.615 17.2938 0.25 16.5988 0.25H11.4388C10.9175 0.25 10.6037 0.63 10.6037 0.99125C10.6037 1.7675 11.7863 1.9475 11.9075 4.1325V8.88C11.9075 9.92125 11.7162 10.11 11.2987 10.11C10.1862 10.11 7.48 6.09625 5.87375 1.50375C5.5625 0.61 5.2475 0.25 4.40875 0.25H1.125C0.1875 0.25 0 0.68375 0 1.1625C0 2.015 1.1125 6.25 5.18125 11.8513C7.89375 15.6763 11.7125 17.75 15.1912 17.75C17.2775 17.75 17.535 17.29 17.535 16.4962V13.605C17.535 12.6838 17.7325 12.5 18.3938 12.5C18.8813 12.5 19.715 12.74 21.6625 14.5837C23.8875 16.77 24.2538 17.75 25.5063 17.75H28.7875C29.725 17.75 30.195 17.29 29.925 16.38C29.6275 15.475 28.565 14.1612 27.1563 12.6025C26.3913 11.715 25.2438 10.7588 24.895 10.28C24.4088 9.66625 24.5475 9.3925 24.895 8.84625C24.895 8.84625 28.895 3.31375 29.3112 1.435H29.3125Z" fill="white"/>
</svg>
